<?xml version="1.0" encoding="utf-8"?>
<svg width="32px" height="32px" viewBox="0 0 32 32" version="1.1" xmlns:xlink="http://www.w3.org/1999/xlink" xmlns="http://www.w3.org/2000/svg">
  <defs>
    <path d="M0 0L32 0L32 32L0 32L0 0Z" id="path_1" />
    <clipPath id="clip_1">
      <use xlink:href="#path_1" />
    </clipPath>
  </defs>
  <g id="Bookmark" clip-path="url(#clip_1)">
    <path d="M0 0L32 0L32 32L0 32L0 0Z" id="Bookmark" fill="none" fill-rule="evenodd" stroke="none" />
    <path d="M10.5003 6.5C8.01017 6.5 6.29556 7.46924 5.35551 8.20028C4.81298 8.6223 4.5 9.27162 4.5 9.95916L4.5 24.537C4.5 25.0891 4.95431 25.4883 5.44634 25.4883C5.60634 25.4883 5.76941 25.446 5.92292 25.3535C6.99348 24.7075 8.5997 24.0009 10.5003 24.0009C11.9869 24.0009 13.2023 24.4521 14.1099 24.9707C14.6964 25.3062 15.3485 25.4736 16.0006 25.4736C16.6526 25.4736 17.3048 25.3062 17.8913 24.9707C18.7988 24.4521 20.0143 24.0009 21.5009 24.0009C23.4014 24.0009 25.0077 24.707 26.0782 25.3525C26.2317 25.445 26.3953 25.4873 26.5548 25.4873C27.0468 25.4873 27.5012 25.0891 27.5012 24.537L27.5012 9.95916C27.5012 9.27162 27.1882 8.6223 26.6456 8.20028C25.7056 7.46924 23.991 6.5 21.5009 6.5C17.5006 6.5 16.0006 8.5001 16.0006 8.5001C16.0006 8.5001 14.5005 6.5 10.5003 6.5L10.5003 6.5ZM10.5002 8.5C12.5551 8.5 14.0798 9.52352 15.0004 10.3683L15.0004 22.9841C14.0822 22.539 12.5614 22.0007 10.5002 22.0007C8.96962 22.0007 7.60756 22.3664 6.5 22.8259L6.5 9.8614C6.5 9.8614 8.01408 8.5 10.5002 8.5L10.5002 8.5ZM21.5002 8.5C23.9958 8.5 25.5004 9.84577 25.5004 9.84577L25.5004 22.8259C24.3929 22.3664 23.0308 22.0007 21.5002 22.0007C19.4428 22.0007 17.9196 22.5398 17 22.9851L17 10.3673C17.9202 9.52272 19.4443 8.5 21.5002 8.5L21.5002 8.5Z" id="Shape" fill="#FFFFFF" fill-rule="evenodd" stroke="none" />
  </g>
</svg>