<?xml version="1.0" encoding="utf-8"?>
<svg width="32px" height="32px" viewBox="0 0 32 32" version="1.1" xmlns:xlink="http://www.w3.org/1999/xlink" xmlns="http://www.w3.org/2000/svg">
  <defs>
    <path d="M0 0L32 0L32 32L0 32L0 0Z" id="path_1" />
    <clipPath id="clip_1">
      <use xlink:href="#path_1" />
    </clipPath>
  </defs>
  <g id="Clock" clip-path="url(#clip_1)">
    <path d="M0 0L32 0L32 32L0 32L0 0Z" id="Clock" fill="none" fill-rule="evenodd" stroke="none" />
    <path d="M16.0002 5C9.9251 5 5 9.9251 5 16.0002C5 22.0753 9.9251 27.0004 16.0002 27.0004C22.0753 27.0004 27.0004 22.0753 27.0004 16.0002C27.0004 9.9251 22.0753 5 16.0002 5L16.0002 5ZM16.0002 7C20.9708 7 25.0004 11.0296 25.0004 16.0002C25.0004 20.9708 20.9708 25.0004 16.0002 25.0004C11.0296 25.0004 7 20.9708 7 16.0002C7 11.0296 11.0296 7 16.0002 7L16.0002 7ZM16.0001 8C15.4481 8 15.0001 8.44746 15.0001 8.99992L15.0001 14.9994L10 14.9994C9.44751 14.9994 9 15.4474 9 15.9993C9 16.5513 9.44751 16.9992 10 16.9992L16.0001 16.9992C16.5522 16.9992 17.0002 16.5518 17.0002 15.9993L17.0002 8.99992C17.0002 8.44746 16.5522 8 16.0001 8L16.0001 8Z" id="Shape" fill="#FFFFFF" fill-rule="evenodd" stroke="none" />
  </g>
</svg>