<?xml version="1.0" encoding="utf-8"?>
<svg width="32px" height="32px" viewBox="0 0 32 32" version="1.1" xmlns:xlink="http://www.w3.org/1999/xlink" xmlns="http://www.w3.org/2000/svg">
  <defs>
    <path d="M0 0L32 0L32 32L0 32L0 0Z" id="path_1" />
    <clipPath id="clip_1">
      <use xlink:href="#path_1" />
    </clipPath>
  </defs>
  <g id="Home" clip-path="url(#clip_1)">
    <path d="M0 0L32 0L32 32L0 32L0 0Z" id="Home" fill="none" fill-rule="evenodd" stroke="none" />
    <path d="M15.999 4C15.5434 4 15.0881 4.15458 14.7169 4.4648L4.40035 13.0852C4.01788 13.4047 3.88175 13.9618 4.13573 14.3907C4.4592 14.9367 5.17502 15.0433 5.64048 14.6544L5.99983 14.3546L5.99983 23.4984C5.99983 24.8788 7.11924 25.9982 8.49962 25.9982L23.4984 25.9982C24.8788 25.9982 25.9982 24.8788 25.9982 23.4984L25.9982 14.3556L26.3575 14.6554C26.5445 14.8119 26.7711 14.8878 26.9971 14.8878C27.3446 14.8878 27.6894 14.7074 27.8798 14.3605C28.1123 13.9365 27.9754 13.401 27.6045 13.091L25.9982 11.7484L25.9982 7.49971C25.9982 6.94726 25.5507 6.49979 24.9982 6.49979L23.9983 6.49979C23.4459 6.49979 22.9984 6.94726 22.9984 7.49971L22.9984 9.24175L17.2811 4.4648C16.9099 4.15458 16.4546 4 15.999 4L15.999 4ZM16.0002 6.07617C16.0575 6.07617 16.1145 6.09577 16.1613 6.13477L24.0003 12.6847L24.0003 23.0003C24.0003 23.5529 23.5528 24.0004 23.0003 24.0004L19.0002 24.0004L19.0002 17.0002C19.0002 16.4477 18.5527 16.0002 18.0002 16.0002L14.0001 16.0002C13.4476 16.0002 13.0001 16.4477 13.0001 17.0002L13.0001 24.0004L9.00002 24.0004C8.4475 24.0004 7.99999 23.5529 7.99999 23.0003L7.99999 12.6837L15.839 6.13477C15.8858 6.09577 15.9428 6.07617 16.0002 6.07617L16.0002 6.07617Z" id="Shape" fill="#000000" fill-rule="evenodd" stroke="none" />
  </g>
</svg>