<?xml version="1.0" encoding="utf-8"?>
<svg width="32px" height="32px" viewBox="0 0 32 32" version="1.1" xmlns:xlink="http://www.w3.org/1999/xlink" xmlns="http://www.w3.org/2000/svg">
  <defs>
    <path d="M0 0L32 0L32 32L0 32L0 0Z" id="path_1" />
    <clipPath id="clip_1">
      <use xlink:href="#path_1" />
    </clipPath>
  </defs>
  <g id="Info" clip-path="url(#clip_1)">
    <path d="M0 0L32 0L32 32L0 32L0 0Z" id="Info" fill="none" fill-rule="evenodd" stroke="none" />
    <path d="M16.0006 5C9.92525 5 5 9.92525 5 16.0006C5 22.0759 9.92525 27.0011 16.0006 27.0011C22.0759 27.0011 27.0011 22.0759 27.0011 16.0006C27.0011 9.92525 22.0759 5 16.0006 5L16.0006 5ZM16.0005 7C20.9712 7 25.0009 11.0297 25.0009 16.0005C25.0009 20.9712 20.9712 25.0009 16.0005 25.0009C11.0297 25.0009 7 20.9712 7 16.0005C7 11.0297 11.0297 7 16.0005 7L16.0005 7ZM16.0001 10.5C15.1715 10.5 14.5 11.1715 14.5 12.0001C14.5 12.8286 15.1715 13.5001 16.0001 13.5001C16.8286 13.5001 17.5002 12.8286 17.5002 12.0001C17.5002 11.1715 16.8286 10.5 16.0001 10.5L16.0001 10.5ZM16 15C15.4475 15 15 15.448 15 16L15 21.0003C15 21.5523 15.4475 22.0004 16 22.0004C16.5526 22.0004 17.0001 21.5523 17.0001 21.0003L17.0001 16C17.0001 15.448 16.5526 15 16 15L16 15Z" id="Shape" fill="#FFFFFF" fill-rule="evenodd" stroke="none" />
  </g>
</svg>