<?xml version="1.0" encoding="utf-8"?>
<svg width="32px" height="32px" viewBox="0 0 32 32" version="1.1" xmlns:xlink="http://www.w3.org/1999/xlink" xmlns="http://www.w3.org/2000/svg">
  <defs>
    <path d="M0 0L32 0L32 32L0 32L0 0Z" id="path_1" />
    <clipPath id="clip_1">
      <use xlink:href="#path_1" />
    </clipPath>
  </defs>
  <g id="Settings" clip-path="url(#clip_1)">
    <path d="M0 0L32 0L32 32L0 32L0 0Z" id="Settings" fill="none" fill-rule="evenodd" stroke="none" />
    <path d="M14.5278 5C13.8583 5 13.2863 5.48213 13.1733 6.14166L12.8822 7.83217C12.7292 7.89068 12.5766 7.95123 12.4281 8.01773L11.0296 7.0294C10.4156 6.60488 9.69191 6.76025 9.26389 7.18077L7.18077 9.26291C6.70725 9.73643 6.64436 10.4816 7.03038 11.0286L8.01773 12.4281C7.95073 12.5766 7.89068 12.7282 7.83217 12.8813L6.14166 13.1723C5.48163 13.2858 5 13.8583 5 14.5278L5 17.4733C5 18.1428 5.48213 18.7148 6.14166 18.8278L7.83217 19.1189C7.89068 19.2719 7.95123 19.4245 8.01773 19.573L7.0294 20.9715C6.64338 21.518 6.70725 22.2637 7.18077 22.7372L9.26291 24.8203C9.80494 25.3504 10.5626 25.3082 11.0286 24.9707L12.4281 23.9834C12.5766 24.0504 12.7282 24.1104 12.8813 24.1689L13.1723 25.8594C13.2858 26.5195 13.8583 27.0011 14.5278 27.0011L17.4733 27.0011C18.1428 27.0011 18.7148 26.519 18.8278 25.8594L19.1189 24.1689C19.2719 24.1104 19.4245 24.0499 19.573 23.9834L20.9715 24.9717C21.384 25.2757 22.1727 25.3854 22.7372 24.8203L24.8203 22.7382C25.2939 22.2647 25.3567 21.5195 24.9707 20.9725L23.9834 19.573C24.0504 19.4245 24.1104 19.2729 24.1689 19.1198L25.8594 18.8288C26.5195 18.7153 27.0011 18.1428 27.0011 17.4733L27.0011 14.5278C27.0011 13.8583 26.519 13.2863 25.8594 13.1733L24.1689 12.8822C24.1104 12.7292 24.0499 12.5766 23.9834 12.4281L24.9717 11.0296C25.3577 10.4831 25.2939 9.73741 24.8203 9.26389L22.7382 7.18077C22.2097 6.66475 21.477 6.67586 20.9725 7.03038L19.573 8.01773C19.4245 7.95073 19.2729 7.89068 19.1198 7.83217L18.8288 6.14166C18.7153 5.48163 18.1428 5 17.4733 5L14.5278 5L14.5278 5ZM15.1078 7L16.894 7C16.9245 7 16.9506 7.02176 16.9556 7.05176L17.3413 9.29504C18.2254 9.61255 19.053 9.94722 19.7956 10.3097L21.6521 8.99815C21.6771 8.98065 21.7117 8.98348 21.7332 9.00498L22.9959 10.2687C23.0174 10.2902 23.0212 10.3238 23.0037 10.3488L21.6912 12.2063C22.0707 13.0089 22.4128 13.825 22.7059 14.6596L24.9491 15.0463C24.9791 15.0513 25.0009 15.0773 25.0009 15.1078L25.0009 16.894C25.0009 16.9245 24.9787 16.9506 24.9482 16.9556L22.7059 17.3413C22.4133 18.1759 22.0752 18.9935 21.6912 19.7956L23.0037 21.6531C23.0212 21.6781 23.0174 21.7117 22.9959 21.7332L21.7332 22.9969C21.7117 23.0184 21.6771 23.0212 21.6521 23.0037L19.7956 21.6921C18.9755 22.0777 18.1574 22.4153 17.3413 22.7068L16.9546 24.9491C16.9496 24.9791 16.9236 25.0009 16.8931 25.0009L15.1069 25.0009C15.0763 25.0009 15.0503 24.9787 15.0453 24.9482L14.6596 22.7059C13.855 22.4263 13.0379 22.0932 12.2053 21.6912L10.3478 23.0037C10.3228 23.0212 10.2892 23.0174 10.2677 22.9959L9.00401 21.7332C8.98251 21.7117 8.97967 21.6771 8.99717 21.6521L10.3088 19.7956C9.91924 18.963 9.58107 18.1449 9.29406 17.3413L7.05176 16.9546C7.02176 16.9496 7 16.9236 7 16.8931L7 15.1069C7 15.0763 7.02176 15.0508 7.05176 15.0453L9.29504 14.6586C9.58555 13.8405 9.91872 13.0229 10.3097 12.2053L8.99717 10.3478C8.97967 10.3228 8.98348 10.2892 9.00498 10.2677L10.2677 9.00401C10.2892 8.98251 10.3238 8.97967 10.3488 8.99717L12.2053 10.3088C12.9794 9.93724 13.8 9.60108 14.6596 9.29406L15.0463 7.05176C15.0513 7.02176 15.0773 7 15.1078 7L15.1078 7ZM16.0002 11.5C13.5146 11.5 11.5 13.5146 11.5 16.0002C11.5 18.4859 13.5146 20.5005 16.0002 20.5005C18.4859 20.5005 20.5005 18.4859 20.5005 16.0002C20.5005 13.5146 18.4859 11.5 16.0002 11.5L16.0002 11.5ZM16.0001 13.5C17.3807 13.5 18.5002 14.6196 18.5002 16.0001C18.5002 17.3807 17.3807 18.5002 16.0001 18.5002C14.6196 18.5002 13.5 17.3807 13.5 16.0001C13.5 14.6196 14.6196 13.5 16.0001 13.5L16.0001 13.5Z" id="Shape" fill="#FFFFFF" fill-rule="evenodd" stroke="none" />
  </g>
</svg>