<?xml version="1.0" encoding="utf-8"?>
<svg width="32px" height="32px" viewBox="0 0 32 32" version="1.1" xmlns:xlink="http://www.w3.org/1999/xlink" xmlns="http://www.w3.org/2000/svg">
  <defs>
    <path d="M0 0L32 0L32 32L0 32L0 0Z" id="path_1" />
    <clipPath id="clip_1">
      <use xlink:href="#path_1" />
    </clipPath>
  </defs>
  <g id="Sun" clip-path="url(#clip_1)">
    <path d="M0 0L32 0L32 32L0 32L0 0Z" id="Sun" fill="none" fill-rule="evenodd" stroke="none" />
    <path d="M16.0003 9.5C19.5905 9.5 22.5007 12.4101 22.5007 16.0003C22.5007 19.5905 19.5905 22.5007 16.0003 22.5007C12.4101 22.5007 9.5 19.5905 9.5 16.0003C9.5 12.4101 12.4101 9.5 16.0003 9.5L16.0003 9.5ZM16.0002 20.5005C18.4859 20.5005 20.5005 18.4859 20.5005 16.0002C20.5005 13.5146 18.4859 11.5 16.0002 11.5C13.5146 11.5 11.5 13.5146 11.5 16.0002C11.5 18.4859 13.5146 20.5005 16.0002 20.5005L16.0002 20.5005ZM17.0001 4.00005C17.0001 4.18306 17.0001 6.81719 17.0001 7.0002C17.0001 7.55273 16.5526 8.00025 16 8.00025C15.4475 8.00025 15 7.55273 15 7.0002C15 6.81719 15 4.18306 15 4.00005C15 3.44752 15.4475 3 16 3C16.5526 3 17.0001 3.44752 17.0001 4.00005L17.0001 4.00005ZM25.1927 8.22209C25.0632 8.35159 23.2006 10.2142 23.0711 10.3437C22.6806 10.7342 22.0475 10.7342 21.657 10.3437C21.2665 9.95317 21.2665 9.32014 21.657 8.92962C21.7865 8.80012 23.6491 6.93752 23.7786 6.80802C24.1691 6.4175 24.8022 6.4175 25.1927 6.80802C25.5832 7.19854 25.5832 7.83157 25.1927 8.22209L25.1927 8.22209ZM28.0002 17.0001C27.8172 17.0001 25.1831 17.0001 25 17.0001C24.4475 17.0001 24 16.5526 24 16C24 15.4475 24.4475 15 25 15C25.1831 15 27.8172 15 28.0002 15C28.5527 15 29.0002 15.4475 29.0002 16C29.0002 16.5526 28.5527 17.0001 28.0002 17.0001L28.0002 17.0001ZM23.7781 25.1927C23.6486 25.0632 21.786 23.2006 21.6565 23.0711C21.266 22.6806 21.266 22.0475 21.6565 21.657C22.047 21.2665 22.6801 21.2665 23.0706 21.657C23.2001 21.7865 25.0627 23.6491 25.1922 23.7786C25.5827 24.1691 25.5827 24.8022 25.1922 25.1927C24.8017 25.5832 24.1686 25.5832 23.7781 25.1927L23.7781 25.1927ZM15 28.0002C15 27.8172 15 25.1831 15 25C15 24.4475 15.4475 24 16 24C16.5526 24 17.0001 24.4475 17.0001 25C17.0001 25.1831 17.0001 27.8172 17.0001 28.0002C17.0001 28.5527 16.5526 29.0002 16 29.0002C15.4475 29.0002 15 28.5527 15 28.0002L15 28.0002ZM6.80752 23.7781C6.93702 23.6486 8.79961 21.786 8.92912 21.6565C9.31964 21.266 9.95267 21.266 10.3432 21.6565C10.7337 22.047 10.7337 22.6801 10.3432 23.0706C10.2137 23.2001 8.35109 25.0627 8.22159 25.1922C7.83107 25.5827 7.19803 25.5827 6.80752 25.1922C6.417 24.8017 6.417 24.1686 6.80752 23.7781L6.80752 23.7781ZM4.00005 15C4.18306 15 6.81719 15 7.0002 15C7.55273 15 8.00025 15.4475 8.00025 16C8.00025 16.5526 7.55273 17.0001 7.0002 17.0001C6.81719 17.0001 4.18306 17.0001 4.00005 17.0001C3.44752 17.0001 3 16.5526 3 16C3 15.4475 3.44752 15 4.00005 15L4.00005 15ZM8.22209 6.80752C8.35159 6.93702 10.2142 8.79961 10.3437 8.92912C10.7342 9.31964 10.7342 9.95267 10.3437 10.3432C9.95317 10.7337 9.32014 10.7337 8.92962 10.3432C8.80012 10.2137 6.93752 8.35109 6.80802 8.22159C6.4175 7.83107 6.4175 7.19803 6.80802 6.80752C7.19854 6.417 7.83157 6.417 8.22209 6.80752L8.22209 6.80752Z" id="Shape" fill="#FFFFFF" fill-rule="evenodd" stroke="none" />
  </g>
</svg>