<?xml version="1.0" encoding="utf-8"?>
<svg width="32px" height="32px" viewBox="0 0 32 32" version="1.1" xmlns:xlink="http://www.w3.org/1999/xlink" xmlns="http://www.w3.org/2000/svg">
  <defs>
    <path d="M0 0L32 0L32 32L0 32L0 0Z" id="path_1" />
    <clipPath id="clip_1">
      <use xlink:href="#path_1" />
    </clipPath>
  </defs>
  <g id="User Male" clip-path="url(#clip_1)">
    <path d="M0 0L32 0L32 32L0 32L0 0Z" id="User-Male" fill="none" fill-rule="evenodd" stroke="none" />
    <path d="M16.0002 4.5C10.2456 4.5 6.50001 7.78857 6.50001 13.5002L6.50001 16.0002C6.50001 16.0002 6 16.9268 6 18.0003C6 19.4378 7.16902 20.5908 8.00004 21.0003C8.94806 24.9544 13.5002 27.5005 16.0002 27.5005C18.5003 27.5005 23.0524 24.9544 24.0004 21.0003C24.8314 20.5908 26.0004 19.261 26.0004 17.8235C26.0004 16.75 25.5004 16.0002 25.5004 16.0002L25.5004 13.5002C25.5004 6.75705 20.6692 6.37797 20.6692 6.37797C20.6692 6.37797 19.2408 4.5 16.0002 4.5L16.0002 4.5ZM16.0001 6.5C19.0307 6.5 19.508 8.33207 19.508 8.33207C19.508 8.33207 23.5003 8.61304 23.5003 13.5001L23.5003 15.5002L23.3235 15.5002C22.864 13.4816 21.5941 10.9708 19.2346 10.3018C19.2346 10.3018 16.9388 13.7636 9.82913 13.5001L8.82911 15.5002L8.5 15.5002L8.5 13.5001C8.5 9.05155 11.2336 6.5 16.0001 6.5L16.0001 6.5ZM19.7041 12.7832C20.462 13.4622 21.7347 15.8796 21.7567 17.5001L23.9674 17.5001C23.9857 17.6007 23.9987 17.7063 23.9987 17.8233C23.9987 18.9264 22.2732 19.6212 22.2732 19.6212C22.2732 22.9328 17.7077 25.5003 15.9993 25.5003C14.291 25.5003 9.72544 22.7353 9.72544 19.6212C9.72544 19.6212 8 19.1241 8 18.0001C8 17.8155 8.02214 17.6522 8.05175 17.5001L10.0662 17.5001L11.0681 15.4952C15.3232 15.4292 17.8028 14.6612 19.7041 12.7832L19.7041 12.7832Z" id="Shape" fill="#FFFFFF" fill-rule="evenodd" stroke="none" />
  </g>
</svg>